<?xml version="1.0" encoding="UTF-8"?>
<!DOCTYPE svg PUBLIC "-//W3C//DTD SVG 1.1//EN" "http://www.w3.org/Graphics/SVG/1.1/DTD/svg11.dtd">
<svg xmlns="http://www.w3.org/2000/svg" version="1.1" width="79px" height="104px" style="shape-rendering:geometricPrecision; text-rendering:geometricPrecision; image-rendering:optimizeQuality; fill-rule:evenodd; clip-rule:evenodd" xmlns:xlink="http://www.w3.org/1999/xlink">
<g><path style="opacity:0.957" fill="#000000" d="M 22.5,1.5 C 39.17,1.3334 55.8367,1.50007 72.5,2C 73.6667,3.16667 74.8333,4.33333 76,5.5C 76.6667,30.5 76.6667,55.5 76,80.5C 75.5348,81.9308 74.7014,83.0975 73.5,84C 56.9001,85.6226 40.2335,85.956 23.5,85C 21.714,84.2155 20.214,83.0488 19,81.5C 17.3531,56.9209 17.0198,32.2542 18,7.5C 18.5985,4.74583 20.0985,2.74583 22.5,1.5 Z M 43.5,29.5 C 51.9308,28.2139 57.9308,31.3806 61.5,39C 59.4213,39.8077 57.4213,39.641 55.5,38.5C 50.5,31.8333 45.5,31.8333 40.5,38.5C 34.3956,40.6812 33.2289,39.3479 37,34.5C 38.9651,32.4497 41.1318,30.783 43.5,29.5 Z M 46.5,39.5 C 50.054,39.6584 51.3873,41.3251 50.5,44.5C 45.0258,45.8601 43.6925,44.1934 46.5,39.5 Z M 34.5,47.5 C 37.6835,45.8122 40.3502,46.4789 42.5,49.5C 44.1831,50.5921 46.0164,51.2587 48,51.5C 52.3552,49.8915 56.5219,48.2248 60.5,46.5C 58.6609,52.4859 54.4943,55.8193 48,56.5C 41.9969,55.6491 37.4969,52.6491 34.5,47.5 Z"/></g>
<g><path style="opacity:0.937" fill="#000000" d="M 1.5,17.5 C 4.5,17.5 7.5,17.5 10.5,17.5C 10.5,42.5 10.5,67.5 10.5,92.5C 27.1667,92.5 43.8333,92.5 60.5,92.5C 60.5,95.5 60.5,98.5 60.5,101.5C 42.1636,101.667 23.8303,101.5 5.5,101C 4.33333,99.8333 3.16667,98.6667 2,97.5C 1.50003,70.8354 1.33336,44.1687 1.5,17.5 Z"/></g>
</svg>
